<svg id="Layer_1" data-name="Layer 1" xmlns="http://www.w3.org/2000/svg" viewBox="0 0 137.37 124.44"><defs><style>.cls-1{fill:#4877ee;}</style></defs><path class="cls-1" d="M112.37,55.19c-4.77-9.52-24.18-9.6-44.61-.67-.12,1.74-.28,3.51-.5,5.29-3,24-14.23,42.34-25.36,41.76,9.65,2.36,24.75-.32,39.86-7.89C103.79,82.65,117.49,65.42,112.37,55.19Z"/><path class="cls-1" d="M63.18,56.62q2.28-1.14,4.55-2.13c1.66-22.35-4.92-40.73-15.52-42.05-11.35-1.41-23,17.26-26,41.71C24,71.44,26.76,87,32.57,95.1,27.46,84.87,41.16,67.65,63.18,56.62Z"/></svg>