<svg id="Layer_1" data-name="Layer 1" xmlns="http://www.w3.org/2000/svg" viewBox="0 0 455.21 100.59"><defs><style>.cls-1{fill:#4877ee;}</style></defs><path class="cls-1" d="M86.93,42.83c-4.77-9.52-24.17-9.61-44.6-.67-.12,1.74-.28,3.5-.51,5.29-3,23.94-14.23,42.34-25.35,41.75,9.64,2.37,24.75-.32,39.86-7.89C78.35,70.28,92.05,53.05,86.93,42.83Z"/><path class="cls-1" d="M37.75,44.26c1.51-.77,3-1.47,4.55-2.13C44,19.78,37.38,1.39,26.78.07c-11.35-1.41-23,17.27-26,41.71-2.15,17.3.6,32.84,6.41,41C2,72.51,15.73,55.28,37.75,44.26Z"/><path class="cls-1" d="M127.7,77c0,2.24,0,4.49,0,6.73,0,.88-.24,1.08-1.25,1.13-.58,0-1.17,0-1.76,0-3.42,0-13.36.08-23,.11,0-.13,0-.27,0-.4a1,1,0,0,1-.15-.62c-.07-3.14-.12-6.28-.18-9.43-.06-3-.37-32.23-.38-37.34,0-.11,0-.22,0-.32,0-1.74,0-2,2-2,2.45,0,4.9,0,7.35,0,1,0,1.19.24,1.24,1.25,0,.58,0,1.17,0,1.76.07,5.11.13,30.78.15,37.48l13.69-.12h.32C127.44,75.18,127.74,75.26,127.7,77Z"/><path class="cls-1" d="M164.62,69.31c-.06,1.42-1.22,1.16-2.09,1.16-7.13,0-13.57,0-20.7,0h-1.6c1.37,4.26,3.92,5.8,7.6,6.66a15.45,15.45,0,0,0,13-2.5,18.52,18.52,0,0,1,2.39-1.22,21.87,21.87,0,0,1,.39,2.78c0,1.51-.15,3-.1,4.55a2.34,2.34,0,0,1-1.42,2.44,25.8,25.8,0,0,1-18.52,2.29c-7.71-1.88-13-8.69-13.51-17.06-.48-7.41,4.35-14.78,11.75-17.93,8-3.41,16.81-1,21.07,5.82C165.36,60.27,164.8,64.78,164.62,69.31ZM150,57.33a10.3,10.3,0,0,0-6.36.88A7,7,0,0,0,140.48,63h15.24C156,60.13,153.69,57.87,150,57.33Z"/><path class="cls-1" d="M202.14,74.16c0,3.3,0,6.6,0,10.09a.73.73,0,0,1-.72.73c-2.2,0-4.3,0-6.38,0-.42,0-.94-.56-1.19-1-.81-1.38-1.6-1.44-3-.57a16.44,16.44,0,0,1-13.43,2.27c-4.79-1.28-7.74-4.35-8.34-9.32-.57-4.76.74-8.94,5.07-11.5,6.11-3.61,12.53-4.32,19.14-1.22.36-2.09-.54-3.72-2.84-4.79-5.14-2.41-10-1.73-14.72,1.2-.49.3-1,.64-1.44,1l-.43-.23c0-2.79,0-5.59,0-8.38,0-.37.65-.84,1.1-1.06,7-3.33,14-3.37,20.85.23,4,2.08,5.8,5.7,6.1,10S202.11,69.94,202.14,74.16Zm-10.92-3.09c-1-.45-2.05-1.06-3.09-1.58a5.61,5.61,0,0,0-3.58-.47,19.48,19.48,0,0,0-3.14.8,4.62,4.62,0,0,0-3,4.9,4.42,4.42,0,0,0,3.88,3.64,11,11,0,0,0,9.6-2.47C194.09,74,193.88,72.28,191.22,71.07Z"/><path class="cls-1" d="M236.19,78.51A12.72,12.72,0,0,1,229,84.77a24.52,24.52,0,0,1-19.47-1.29,2,2,0,0,1-1.32-2.13c.07-2.55,0-5.11-.06-7.66V72.13l.45-.19a13.64,13.64,0,0,0,8,5c2.78.55,5.57,1.18,8.38.21a6.23,6.23,0,0,0,1.87-1c1.59-1.3,1.38-3.52-.55-4.13-2.31-.73-4.8-1.53-7.16-2.14s-5-.87-7.23-2.07c-4.71-2.58-5.46-8.44-1.74-13,5-6.2,15.08-7.9,22.62-3.52a1.39,1.39,0,0,1,.62,1c0,2.65-.32,5.3-.32,8.2a5.88,5.88,0,0,1-.94-.57c-3.5-3.26-7.32-3.89-11.81-2.93A4.38,4.38,0,0,0,218,58.59a1.88,1.88,0,0,0,1,3.21c2.34.69,4.76,1.1,7.14,1.62a18.7,18.7,0,0,1,7.38,3.18C237.53,69.67,238.64,74,236.19,78.51Z"/><path class="cls-1" d="M275.79,69.31c-.06,1.42-1.23,1.16-2.09,1.16-7.14,0-13.57,0-20.71,0H251.4c1.37,4.26,3.91,5.8,7.6,6.66a15.46,15.46,0,0,0,13-2.5,18.52,18.52,0,0,1,2.39-1.22,21.87,21.87,0,0,1,.39,2.78c0,1.51-.16,3-.11,4.55a2.32,2.32,0,0,1-1.41,2.44,25.8,25.8,0,0,1-18.52,2.29c-7.72-1.88-13-8.69-13.51-17.06C240.73,61,245.56,53.58,253,50.43c8-3.41,16.81-1,21.07,5.82C276.53,60.27,276,64.78,275.79,69.31Zm-14.64-12a10.29,10.29,0,0,0-6.36.88A7.06,7.06,0,0,0,251.64,63h15.25C267.18,60.13,264.86,57.87,261.15,57.33Z"/><path class="cls-1" d="M308.78,77c0,2.24,0,4.49,0,6.73,0,.88-.24,1.08-1.25,1.13-.58,0-1.17,0-1.76,0-3.42,0-13.36.08-23,.11,0-.13,0-.27,0-.4a1,1,0,0,1-.15-.62c-.07-3.14-.12-6.28-.18-9.43-.06-3-.37-32.23-.38-37.34,0-.11,0-.22,0-.32,0-1.74.05-2,2-2,2.45,0,4.9,0,7.35,0,1,0,1.19.24,1.23,1.25,0,.58,0,1.17,0,1.76.07,5.11.13,30.78.15,37.48l13.69-.12h.32C308.52,75.18,308.81,75.26,308.78,77Z"/><path class="cls-1" d="M304.83,51.19a.7.7,0,0,1,.63-1c3.08.06,5.38-.07,8.17,0,.38,0,.88.55,1.11,1,2.38,4.26,4.7,8.6,7.05,12.88l1.59,2.85c1.35-3,2.62-5.8,3.86-8.61,1-2.33,2-4.7,3.05-7a2,2,0,0,1,1.36-1c2.51-.08,5-.06,7.69,0a1.15,1.15,0,0,1,1,1.63l0,.1c-3.73,7.6-7.79,15.19-11.52,22.79S321,91.53,317.16,99.27a2,2,0,0,1-2.1,1.31c-2.92-.08-5.85,0-9,0,.3-.7.47-1.14.68-1.56,3.44-6.71,7.46-14.78,11-21.46a2,2,0,0,0,0-2.22c-4.33-7.77-8.14-15.57-12.44-23.36C305.1,51.72,305,51.48,304.83,51.19Z"/><path class="cls-1" d="M367.19,80.74c0,3.37,0,3.37-3.16,4.51-8.35,3-15-1.37-15.15-10.63-.08-4.56-.35-9.61-.35-14.17V58.62c-1.85,0-3.53,0-5.2,0-1,0-1.43-.27-1.34-1.48a38.78,38.78,0,0,0,0-5.39c-.08-1.33.43-1.71,1.64-1.64,1.52.08,3.05,0,4.74,0,0-2.19.55-3.8.47-5.89-.06-1.44.23-2.28,1.9-2.56,2.14-.35,4.39-1.5,6.47-2.14,1.39-.42,1.79.15,1.79,1.39,0,3-.64,6-.64,9.13,2.64,0,4.95.35,7.54.46a1,1,0,0,1,.93,1c.05,2.45.31,4.87.31,7.45l-8.71-.32c0,5.21-.06,10.08,0,15.12A3.71,3.71,0,0,0,361,77.57a4.57,4.57,0,0,0,4.86-1.51c.22-.22.43-.45.64-.68l.46.17c.08,1.24.17,2.48.24,3.73C367.21,79.76,367.19,80.25,367.19,80.74Z"/><path class="cls-1" d="M383.54,39.54a5.61,5.61,0,0,1-6,5.67,6.2,6.2,0,0,1-5.95-6.33c.06-3.19,2.77-5.47,6.09-5.41A5.85,5.85,0,0,1,383.54,39.54Zm-1.07,14c0,10.1.67,19.55.76,29.65,0,1.42-.33,1.9-1.81,1.82-2.55-.12-5.59,0-8.4,0V52.25a2.18,2.18,0,0,1,2.18-2.18c2.26,0,4.62,0,6.7,0,.41,0,.29,1.31.49,1.78A4.29,4.29,0,0,1,382.47,53.51Z"/><path class="cls-1" d="M420,79.14c.26,2.39-.81,3.65-2.82,4.7-10.08,5.25-23.83,1.68-27.84-10.06a17.1,17.1,0,0,1,2.84-17c6-7.59,17.55-10.07,25.63-5.54a3.37,3.37,0,0,1,2.06,3.62c-.19,2.1,0,4.24,0,6.85-1-.64-1.51-.95-2-1.31-3.77-2.76-7.85-4.22-12.55-2.81a10.15,10.15,0,0,0-7.25,10.86c.42,4.94,3.67,8.13,8.91,8.78,4.68.58,8.62-.68,11.45-4.62a7.53,7.53,0,0,0,.63-1.54l1,.68c0,.57.09,1.14.09,1.72A47.05,47.05,0,0,0,420,79.14Z"/><path class="cls-1" d="M453.92,78.51a12.74,12.74,0,0,1-7.25,6.26,24.52,24.52,0,0,1-19.47-1.29,2,2,0,0,1-1.32-2.13c.07-2.55,0-5.11-.05-7.66,0-.52,0-1,0-1.56l.45-.19a13.64,13.64,0,0,0,8,5c2.77.55,5.56,1.18,8.37.21a6.23,6.23,0,0,0,1.87-1c1.59-1.3,1.39-3.52-.55-4.13-2.31-.73-4.8-1.53-7.16-2.14s-5-.87-7.23-2.07c-4.7-2.58-5.45-8.44-1.74-13,5-6.2,15.09-7.9,22.63-3.52a1.42,1.42,0,0,1,.62,1c0,2.65-.33,5.3-.33,8.2a7,7,0,0,1-.94-.57c-3.5-3.26-7.31-3.89-11.81-2.93a4.42,4.42,0,0,0-2.35,1.57,1.88,1.88,0,0,0,1,3.21c2.33.69,4.75,1.1,7.14,1.62a18.7,18.7,0,0,1,7.38,3.18C455.25,69.67,456.36,74,453.92,78.51Z"/></svg>